HIERARCHY
ROOT root
{
	OFFSET 0.000000 0.000000 0.000000
	CHANNELS 6 Xposition Yposition Zposition Zrotation Yrotation Xrotation
	JOINT lhip
	{
		OFFSET 0.058581 -0.082280 -0.017664
		CHANNELS 3 Zrotation Yrotation Xrotation
		JOINT lknee
		{
			OFFSET 0.043451 -0.386469 0.008037
			CHANNELS 3 Zrotation Yrotation Xrotation
			JOINT lankle
			{
				OFFSET -0.014790 -0.426874 -0.037428
				CHANNELS 3 Zrotation Yrotation Xrotation
				JOINT ltoe
				{
					OFFSET 0.041054 -0.060286 0.122042
					CHANNELS 3 Zrotation Yrotation Xrotation
					End Site
					{
						OFFSET 0.000000 0.000000 0.000000
					}
				}
			}
		}
	}
	JOINT rhip
	{
		OFFSET -0.060310 -0.090513 -0.013543
		CHANNELS 3 Zrotation Yrotation Xrotation
		JOINT rknee
		{
			OFFSET -0.043257 -0.383688 -0.004843
			CHANNELS 3 Zrotation Yrotation Xrotation
			JOINT rankle
			{
				OFFSET 0.019056 -0.420046 -0.034562
				CHANNELS 3 Zrotation Yrotation Xrotation
				JOINT rtoe
				{
					OFFSET -0.034840 -0.062106 0.130323
					CHANNELS 3 Zrotation Yrotation Xrotation
					End Site
					{
						OFFSET 0.000000 0.000000 0.000000
					}
				}
			}
		}
	}
	JOINT lowerback
	{
		OFFSET 0.004439 0.124404 -0.038385
		CHANNELS 3 Zrotation Yrotation Xrotation
		JOINT upperback
		{
			OFFSET 0.004488 0.137956 0.026820
			CHANNELS 3 Zrotation Yrotation Xrotation
			JOINT chest
			{
				OFFSET -0.002265 0.056032 0.002855
				CHANNELS 3 Zrotation Yrotation Xrotation
				JOINT lowerneck
				{
					OFFSET -0.013390 0.211636 -0.033468
					CHANNELS 3 Zrotation Yrotation Xrotation
					JOINT upperneck
					{
						OFFSET 0.010113 0.088937 0.050410
						CHANNELS 3 Zrotation Yrotation Xrotation
						End Site
						{
							OFFSET 0.000000 0.000000 0.000000
						}
					}
				}
				JOINT lclavicle
				{
					OFFSET 0.071702 0.114000 -0.018898
					CHANNELS 3 Zrotation Yrotation Xrotation
					JOINT lshoulder
					{
						OFFSET 0.122921 0.045205 -0.019046
						CHANNELS 3 Zrotation Yrotation Xrotation
						JOINT lelbow
						{
							OFFSET 0.255332 -0.015649 -0.022946
							CHANNELS 3 Zrotation Yrotation Xrotation
							JOINT lwrist
							{
								OFFSET 0.265709 0.012698 -0.007375
								CHANNELS 3 Zrotation Yrotation Xrotation
								End Site
								{
									OFFSET 0.000000 0.000000 0.000000
								}
							}
						}
					}
				}
				JOINT rclavicle
				{
					OFFSET -0.082954 0.112472 -0.023707
					CHANNELS 3 Zrotation Yrotation Xrotation
					JOINT rshoulder
					{
						OFFSET -0.113228 0.046853 -0.008472
						CHANNELS 3 Zrotation Yrotation Xrotation
						JOINT relbow
						{
							OFFSET -0.260127 -0.014369 -0.031269
							CHANNELS 3 Zrotation Yrotation Xrotation
							JOINT rwrist
							{
								OFFSET -0.269108 0.006794 -0.006027
								CHANNELS 3 Zrotation Yrotation Xrotation
								End Site
								{
									OFFSET 0.000000 0.000000 0.000000
								}
							}
						}
					}
				}
			}
		}
	}
}
MOTION
Frames: 14
Frame Time: 0.033333
-0.337895 3.068172 0.952977 -0.734861 1.126526 82.534347 -0.983824 3.539891 -10.016375 2.851433 13.081625 36.289225 6.547374 15.918147 -29.847117 0.000000 -0.000000 0.000000 -2.416888 -0.632502 -19.007479 -6.958291 -5.465508 54.630380 7.408410 -9.046561 -19.623372 0.000000 -0.000000 0.000000 -2.555447 0.926995 35.890404 -3.119276 -4.452471 10.687446 2.023571 -1.839446 3.395595 -8.882646 5.408895 6.231762 1.534067 16.646583 -18.654998 -19.356056 -16.410744 -3.491287 -43.960167 -27.163183 -3.189603 83.806361 -70.653682 -60.907037 10.952534 -12.477523 13.247718 17.134205 13.081405 1.453008 56.783142 2.315649 7.178475 -30.354656 58.601316 -16.533893 -5.814050 13.772855 11.266015 
-0.331150 3.066206 0.951723 -1.442817 1.391109 82.251321 -1.137166 3.622897 -9.682305 2.988428 13.302195 36.565821 6.730094 16.396537 -30.212540 0.000000 -0.000000 0.000000 -2.792486 -0.225390 -20.881201 -7.142673 -5.288548 57.908519 7.862756 -8.709468 -17.079702 0.000000 -0.000000 0.000000 -2.780589 0.745926 36.713795 -3.154735 -4.250231 10.483368 2.008610 -1.846075 3.405045 -9.005828 5.857734 6.082965 1.283249 17.046339 -18.868172 -19.106113 -16.679678 -3.706538 -43.304604 -27.260614 -3.577100 84.079264 -70.206018 -61.631840 10.531508 -12.526763 13.634457 17.180050 13.078902 1.277131 56.861691 2.244277 7.330723 -31.343924 58.393253 -17.891896 -5.446504 13.776772 11.613625 
-0.324686 3.064025 0.950248 -2.182712 1.654351 81.825104 -1.126074 3.896304 -9.131006 2.940450 13.611696 36.772216 6.979659 16.765548 -30.610151 0.000000 -0.000000 0.000000 -3.090318 0.452092 -23.144236 -7.567341 -5.333244 61.682655 7.680496 -9.095236 -13.592764 0.000000 -0.000000 0.000000 -3.173584 0.494499 37.613539 -3.184009 -3.871305 10.372561 2.041061 -1.827865 3.446243 -9.186342 6.225131 5.782588 1.079103 17.497933 -19.175240 -18.837396 -16.923235 -3.880530 -42.496771 -27.265053 -3.973393 84.615291 -69.861774 -62.667152 10.292950 -12.516856 14.106485 17.205382 13.135808 1.087112 56.895178 2.262461 7.639155 -32.395277 58.230478 -19.276147 -5.070021 13.691011 11.948763 
-0.318292 3.061754 0.948352 -2.683077 1.939436 81.328595 -1.103457 4.119311 -8.563009 2.815511 13.745841 37.040637 7.348738 17.239092 -30.974838 0.000000 -0.000000 0.000000 -3.412309 1.052842 -25.517134 -7.843776 -5.739233 65.357088 6.668832 -10.185294 -9.935725 0.000000 -0.000000 0.000000 -3.476049 0.060400 38.580285 -3.201843 -3.551184 10.157784 2.008450 -1.882292 3.640552 -9.376739 6.496539 5.396394 0.867565 17.934331 -19.411894 -18.582323 -17.124755 -3.963382 -41.527652 -27.196027 -4.471925 85.134853 -69.591657 -63.689287 10.305765 -12.664658 14.319282 17.148381 13.239686 0.924910 56.998592 2.398292 8.034981 -33.395566 58.087854 -20.509985 -4.919729 13.570069 12.139170 
-0.312230 3.059004 0.946182 -2.787576 2.262642 80.823284 -1.132035 4.239532 -8.058278 2.801135 13.639581 37.503719 7.658682 17.646992 -31.407558 0.000000 -0.000000 0.000000 -3.662692 1.080287 -27.629114 -7.975432 -6.443515 68.294730 5.268392 -11.218013 -7.330286 0.000000 -0.000000 0.000000 -3.502348 -0.490411 39.719457 -3.215161 -3.510770 9.695578 1.924991 -2.031465 3.787520 -9.553631 6.711611 5.183971 0.696077 18.303856 -19.535641 -18.361137 -17.177129 -4.013217 -40.657002 -27.012737 -5.039251 85.312703 -69.569592 -64.136812 10.284572 -12.717586 14.277430 17.083654 13.273257 0.862802 57.218411 2.488531 8.265837 -34.054501 58.064966 -21.158820 -5.010612 13.511660 12.347114 
-0.306882 3.055420 0.944203 -2.893058 2.510621 80.332270 -1.187511 4.638016 -7.508747 2.821978 13.417969 37.996947 7.682079 17.822134 -32.052831 0.000000 -0.000000 0.000000 -3.746672 0.840824 -29.475758 -8.007518 -7.238051 69.912984 5.203855 -10.844950 -7.184940 0.000000 -0.000000 0.000000 -3.497948 -0.836333 40.697703 -3.262610 -3.506874 9.396635 1.898520 -2.145021 3.808952 -9.540542 7.044689 5.165385 0.620059 18.293695 -19.656475 -18.178628 -17.249638 -4.126956 -40.052404 -26.810771 -5.444087 85.055693 -69.565292 -64.117418 10.238327 -12.691742 14.335266 17.118828 13.246982 0.866674 57.417823 2.457387 8.167274 -34.339386 58.184156 -21.414930 -5.180143 13.555541 12.405647 
-0.302158 3.051251 0.942510 -3.135964 2.715311 79.904236 -1.184263 5.242629 -6.955768 2.853391 13.252524 38.445700 7.603907 17.816325 -32.734893 0.000000 -0.000000 0.000000 -3.606130 0.589577 -31.205810 -7.687611 -8.128659 69.697509 6.030700 -9.647125 -7.534077 0.000000 -0.000000 0.000000 -3.523113 -0.990131 41.360954 -3.329563 -3.402894 9.389464 1.921128 -2.208747 3.810247 -9.421234 7.406719 5.121599 0.598608 18.067199 -19.815876 -18.057151 -17.368188 -4.249720 -39.633042 -26.772462 -5.721167 84.670092 -69.406736 -64.069533 10.211238 -12.733310 14.628169 17.219182 13.231544 0.949697 57.542502 2.476331 7.925512 -34.536368 58.268974 -21.627633 -5.405387 13.700445 12.553464 
-0.297780 3.046814 0.941041 -3.335613 2.955622 79.594121 -1.156417 5.713981 -6.512226 2.918647 13.109781 38.880600 7.550545 17.851030 -33.318274 0.000000 -0.000000 0.000000 -3.247228 0.243215 -32.844262 -7.196873 -9.242224 67.734622 6.748523 -8.650988 -7.237773 0.000000 -0.000000 0.000000 -3.466450 -1.170776 41.954385 -3.397437 -3.322269 9.259880 1.952489 -2.268693 3.879540 -9.356555 7.687048 4.984043 0.632031 17.957459 -19.900301 -17.969233 -17.339883 -4.371290 -39.404825 -26.843097 -5.912319 84.466686 -69.234465 -64.130091 10.189303 -12.783343 14.926087 17.273851 13.153883 1.046185 57.643676 2.583803 7.737993 -34.550310 58.323188 -21.612059 -5.451345 13.787717 12.682870 
-0.293846 3.041724 0.939930 -3.632279 3.128309 79.302179 -1.177890 6.203786 -5.965847 3.029283 13.031292 39.205080 7.445237 17.861231 -33.887129 0.000000 -0.000000 0.000000 -2.722916 -0.062460 -34.242476 -6.909695 -10.529105 64.458697 7.171349 -8.101743 -7.118668 0.000000 -0.000000 0.000000 -3.474922 -1.258745 42.471259 -3.524125 -3.207560 9.146438 2.047655 -2.314566 3.893778 -9.317021 7.951881 4.983299 0.707614 17.902693 -20.031062 -17.939312 -17.185265 -4.415168 -39.245771 -26.912652 -6.048019 84.492841 -69.078587 -64.269464 10.310134 -12.820051 15.114258 17.366148 13.059376 1.210163 57.630865 2.730411 7.609549 -34.320691 58.381504 -21.287338 -5.626602 13.864413 12.581159 
-0.290329 3.036140 0.938724 -3.848747 3.302980 79.063059 -1.152442 6.601614 -5.487279 3.161008 12.986361 39.609075 7.265396 17.783754 -34.465176 0.000000 -0.000000 0.000000 -2.085566 -0.482437 -35.339643 -6.814273 -12.138451 60.153410 7.527292 -7.934883 -6.926574 0.000000 -0.000000 0.000000 -3.427742 -1.339789 42.816464 -3.636596 -3.156572 9.022293 2.132802 -2.357328 4.022894 -9.258544 8.111933 4.960407 0.847578 17.833545 -20.021321 -17.865380 -17.014000 -4.416705 -39.146334 -27.066206 -6.176675 84.452745 -68.939125 -64.350416 10.440451 -12.882637 15.254771 17.352802 12.944715 1.338717 57.637288 2.907233 7.528046 -34.022492 58.486901 -20.844785 -5.758631 13.898937 12.468047 
-0.287351 3.029552 0.937269 -4.055129 3.386191 78.810263 -1.062596 7.191162 -4.950170 3.229698 12.932122 40.088706 7.090993 17.507550 -35.062878 0.000000 -0.000000 0.000000 -1.345343 -1.015854 -35.990291 -6.509592 -13.659289 55.077598 8.051530 -7.693085 -5.919779 0.000000 -0.000000 0.000000 -3.396980 -1.350636 42.964089 -3.806320 -3.160193 9.039602 2.221583 -2.400131 4.148927 -9.306215 8.195184 4.945635 1.070928 17.861631 -20.023564 -17.760802 -16.835318 -4.394152 -39.047474 -27.255183 -6.372594 84.297985 -68.907822 -64.312061 10.463023 -12.888152 15.347073 17.316046 12.807654 1.509174 57.692356 3.131786 7.426453 -33.813044 58.655187 -20.433284 -5.815322 13.930445 12.464437 
-0.284845 3.022735 0.935377 -4.107279 3.393857 78.668984 -0.964660 7.775063 -4.602212 3.302434 12.953333 40.779904 6.993036 17.110608 -35.714913 0.000000 -0.000000 0.000000 -0.507614 -1.674824 -36.507487 -5.952999 -14.836955 49.662477 9.108733 -7.197050 -3.055667 0.000000 -0.000000 0.000000 -3.360899 -1.330536 43.005780 -3.937282 -3.254953 8.893478 2.306604 -2.472889 4.353085 -9.410375 8.123466 4.875701 1.413018 17.955195 -19.804713 -17.653109 -16.635890 -4.397294 -39.037446 -27.522570 -6.539111 83.925179 -68.947922 -64.099787 10.412413 -12.962001 15.728770 17.237144 12.554644 1.622520 57.810883 3.317306 7.401516 -33.710240 58.832324 -20.259954 -5.867858 13.996613 12.523029 
-0.282653 3.015485 0.933144 -4.120708 3.251314 78.603155 -0.992061 8.295244 -4.340116 3.441111 13.094786 41.599385 6.894593 16.604225 -36.353102 0.000000 -0.000000 0.000000 0.321595 -2.326847 -36.937971 -5.427659 -15.812039 44.307901 10.653137 -6.503097 1.390937 0.000000 -0.000000 0.000000 -3.367141 -1.247575 42.912101 -4.083682 -3.384380 8.717017 2.357467 -2.532042 4.572904 -9.575994 7.941880 4.826251 1.778463 18.085558 -19.542224 -17.576073 -16.466831 -4.454920 -39.037643 -27.811007 -6.627766 83.495223 -68.935563 -63.916475 10.226676 -13.080232 16.270529 17.152196 12.210063 1.655608 57.961521 3.421069 7.465612 -33.766744 59.015553 -20.352133 -5.846144 14.024295 12.527813 
-0.280688 3.007462 0.930651 -4.068137 2.989233 78.553584 -1.166604 8.615629 -4.061595 3.588515 13.207596 42.480773 6.707961 16.115294 -36.926985 0.000000 -0.000000 0.000000 1.038522 -2.862871 -37.149394 -4.950604 -16.749013 39.163298 12.413889 -6.020079 6.213133 0.000000 -0.000000 0.000000 -3.365353 -1.170675 42.711806 -4.239363 -3.536971 8.602938 2.375871 -2.593264 4.768781 -9.871704 7.729252 4.798175 2.008891 18.295881 -19.419678 -17.578240 -16.345249 -4.480360 -39.004781 -28.113299 -6.701040 83.197552 -68.816179 -63.939410 9.931204 -13.189965 16.795941 17.051130 11.865358 1.653377 58.106702 3.453188 7.588297 -34.058333 59.178005 -20.688275 -5.791583 14.023391 12.528364 
